<?xml version="1.0" encoding="UTF-8"?>
<!DOCTYPE svg PUBLIC "-//W3C//DTD SVG 1.1//EN" "http://www.w3.org/Graphics/SVG/1.1/DTD/svg11.dtd">
<!-- Creator: CorelDRAW X7 -->
<svg xmlns="http://www.w3.org/2000/svg" xml:space="preserve" width="21.6746mm" height="21.6746mm" version="1.1" style="shape-rendering:geometricPrecision; text-rendering:geometricPrecision; image-rendering:optimizeQuality; fill-rule:evenodd; clip-rule:evenodd"
viewBox="0 0 2167 2167"
 xmlns:xlink="http://www.w3.org/1999/xlink">
 <defs>
  <style type="text/css">
   <![CDATA[
    .fil4 {fill:#606062;fill-rule:nonzero}
    .fil0 {fill:#CF142B;fill-rule:nonzero}
    .fil2 {fill:#CF142B;fill-rule:nonzero}
    .fil1 {fill:url(#id0)}
    .fil3 {fill:url(#id1)}
   ]]>
  </style>
  <linearGradient id="id0" gradientUnits="userSpaceOnUse" x1="291.71" y1="1358.59" x2="1419.01" y2="569.12">
   <stop offset="0" style="stop-opacity:1; stop-color:#B5B7B9"/>
   <stop offset="0.65098" style="stop-opacity:1; stop-color:#FEFEFE"/>
   <stop offset="1" style="stop-opacity:1; stop-color:#FEFEFE"/>
  </linearGradient>
  <linearGradient id="id1" gradientUnits="userSpaceOnUse" xlink:href="#id0" x1="485.54" y1="1047.39" x2="862.74" y2="783.26">
  </linearGradient>
 </defs>
 <g id="Layer_x0020_1">
  <metadata id="CorelCorpID_0Corel-Layer"/>
  <path class="fil0" d="M1460 627c-163,356 -544,721 -852,814 -211,64 -332,-17 -333,-190l0 -2c-1,-79 24,-176 75,-287l107 -33c-109,235 -33,376 169,314 201,-61 451,-300 558,-533l275 -83 1 0z"/>
  <path class="fil0" d="M505 915c-55,119 -17,191 86,160 103,-31 231,-153 285,-272l-371 112z"/>
  <path class="fil1" d="M468 1463l0 0 -5 0c-3,0 -6,-1 -9,-1l0 0 -1 0c-1,0 -3,0 -5,0l0 0 -1 0c-1,-1 -2,-1 -4,-1l0 0 -1 0c-1,0 -2,0 -3,0l0 -1 -1 0c-1,0 -3,0 -4,0l0 0 0 0c-2,0 -5,-1 -7,-1l0 0 0 0c-1,0 -2,-1 -3,-1l0 0 0 0 -2 0 0 0 -1 0 -2 -1 0 0 0 0 -2 0 0 -1 -1 0c-1,0 -1,0 -2,0l0 0 0 0 -2 -1 0 0 -1 0c-2,0 -4,-1 -6,-1l0 0 0 0c0,-1 -1,-1 -1,-1l0 0 -1 0 -1 0 0 -1 -1 0 -1 0 0 0 0 0 -2 -1 0 0 0 0 -1 0 0 0 -1 0 -1 -1 0 0 0 0 -2 0 0 -1 0 0c-2,0 -4,-1 -6,-2l0 0 0 0 -1 0 0 0 0 0 -1 -1 0 0 -1 0 -1 -1 0 0 0 0 -1 0 0 0 -1 0 0 -1 0 0 -1 0 -1 0 0 0 0 0 -1 -1 0 0 0 0 -1 0 0 0 -1 0 -1 -1 0 0 0 0 -1 -1 0 0 0 0c-1,0 -2,-1 -3,-1l0 0 0 0 -1 -1c-1,0 -1,-1 -2,-1l0 0 0 0 -1 0 0 -1 0 0 -1 0 0 0 -1 0c0,0 0,-1 -1,-1l0 0 0 0 0 0 0 0 -1 0 0 -1 0 0 0 0 -1 -1 0 0 0 0 -1 0 0 0 0 0 -1 -1 0 0 0 0c-3,-1 -5,-3 -7,-4l0 0 0 0c-1,-1 -1,-1 -2,-1l0 0 0 0 0 -1 0 0 -1 0c0,0 -1,-1 -1,-1l0 0 0 0 -1 0 0 -1 0 0c-1,0 -1,0 -1,-1l0 0 -1 0 0 0 0 0 0 0 -2 -2 0 0 0 0 0 0 0 0 0 0c-1,-1 -2,-1 -3,-2l0 0 0 0c-1,-1 -3,-3 -4,-4l0 0 0 0 -1 0 0 -1 0 0 0 0 0 0 -1 0 0 -1 0 0 0 0 -1 0 0 0 0 0 0 -1 0 0 0 0 -1 0 0 0 0 0 0 -1 0 0 -1 0 0 0 0 -1 0 0 0 0 0 0 -1 0c-2,-2 -4,-4 -6,-6l0 -1 0 0c-1,0 -1,-1 -2,-2l0 0 0 0 -1 -1 0 0 0 0 0 0 0 -1 0 0 -1 0 0 0 0 0c0,-1 -1,-1 -1,-2l0 0 0 0 -1 0 0 0 0 0 0 -1 0 0 0 0c-1,-1 -1,-1 -2,-2l0 0 0 0 0 -1 0 0 0 0c-2,-2 -4,-4 -5,-6l0 0 0 0 -1 -1 0 0 0 0 0 -1 0 0 0 0 -1 -1 0 0 0 0 0 -1 0 0 0 0 -1 0 0 -1 0 0 0 0 0 0 0 0 -1 -1 0 -1 0 0c-1,0 -1,-1 -1,-1l0 0 0 0c-1,-2 -3,-4 -4,-6l0 0 0 0 0 -1 0 0 0 0 -1 -1 0 0 0 0 0 -1 0 -1 -1 0c0,-1 -1,-2 -2,-4l0 0 0 0 0 -1 0 0 0 0c0,0 -1,0 -1,-1l0 0 0 0c-1,-2 -2,-5 -3,-7l0 0 0 0c-1,-1 -1,-2 -1,-3l0 0 -1 0c0,-1 0,-2 -1,-3l0 0 0 0 0 -1 0 -1 0 0 -1 -1 0 0 0 0 0 -1 0 -1 -1 0 0 -1 0 0 0 0c0,0 0,-1 0,-1l0 -1 -1 0 0 -1 0 0 0 0c-1,-3 -2,-5 -2,-7l0 0 0 0 -1 -2 0 0 0 0c0,-1 0,-1 -1,-2l0 0 0 0c0,-1 0,-1 0,-2l0 -1 0 0 -1 -1 0 0 0 0 0 -2 0 -1 0 0 -1 -1 0 0 0 0c0,-1 0,-2 0,-3l0 0 0 0c-1,-1 -1,-3 -2,-4l0 -1 0 0c0,-1 0,-1 0,-2l0 -1 0 0c0,0 -1,-1 -1,-2l0 -1 0 0c0,0 0,-1 0,-2l0 -1 0 0c-1,0 -1,-1 -1,-2l0 -1 0 0 0 -3 0 0 -1 0c0,-2 0,-5 -1,-7l0 -1 0 0c0,-1 0,-2 0,-4l0 -1 0 0c0,-1 -1,-3 -1,-4l0 -1 0 0c0,-2 0,-4 0,-5l0 -1 0 0c-1,-2 -1,-5 -1,-7l0 -3 0 0c0,-5 0,-9 0,-14l0 -9c0,-4 0,-8 0,-12l0 0 0 -5c0,-5 1,-9 1,-14l0 0 0 -2c0,-1 0,-3 1,-4l0 0 0 -2c0,-1 0,-2 0,-3l0 0 0 -2 1 -3 0 0 0 -2 0 -3 1 0 0 -1c0,-3 0,-6 1,-8l0 0 0 -1 0 -3 0 0 0 0 1 -3 0 0 0 -1 0 -2 0 0 0 -1 1 -2 0 0 0 -2 0 -2 1 0 0 -1 0 -2 0 0 0 -1 1 -3 0 0 0 0c0,-4 1,-8 2,-11l0 0 0 -1 0 -2 1 0 0 0 0 -2 0 0 0 -1 1 -2 0 0 0 -1 0 -1 0 0 0 -1 1 -2 0 0 0 -1 0 -1 1 0 0 -1 0 -2 0 0 0 0 1 -2 0 0 0 -1 0 -2 0 0 0 0 1 -2 0 0 0 0 0 -2 0 0 0 -1c1,-1 1,-3 2,-4l0 0 0 0 1 -4 0 0 0 0 0 -2 0 0 0 -1 1 -1 0 0 0 -1 0 -1 0 0 0 -1 1 -1 0 0 0 -1 0 -1 1 0 0 -1 0 -1 0 0 0 -1 1 -1 0 0 0 -1 0 -1 0 0 0 -1 1 -1 0 0 0 -1 0 -1 0 0 0 -1 1 -2 0 0 0 0 1 -1 0 0 0 0c0,-2 1,-4 1,-6l0 0 0 0c1,-2 1,-3 2,-5l0 0 0 -1 1 -1 0 0 0 0 0 -2 0 0 0 0 1 -1 0 0 0 -1 0 -1 0 0 0 -1 1 -1 0 0 0 0 0 -2 1 0 0 0 0 -1 0 0 0 -1 1 -1 0 0 0 0 0 -2 0 0 0 0 1 -2 0 0 0 0 0 -1 0 0 0 -1 1 -1 0 0 0 0 1 -2 0 0 0 0 0 -1 0 0 0 0 1 -3 0 0 0 -1 1 -1 0 0 0 0 0 -2 0 0 0 0c1,-2 2,-4 3,-6l0 0 0 0 1 -3 0 0 0 0 0 -2 0 0 0 0 2 -3 0 0 0 0 0 -1 0 0 0 0 1 -1 0 0 0 -1 0 -1 0 0 0 0 1 -1 0 0 0 -1 0 -1 1 0 0 0 0 -1 0 0 0 -1 1 -1 0 0 0 0 0 -2 0 0 0 0 1 -1 0 0 0 0 0 -2 0 0 0 0 1 -1 0 0 0 0 1 -1 0 0 0 -1 0 -1 0 0 0 0 1 -1 0 0 0 0 1 -3 0 0 0 0c1,-4 3,-8 4,-11l0 0 0 0 2 -3 0 0 0 0 0 -1 0 0 0 0 1 -1 0 0 0 -1 0 -1 0 0 0 0 1 -1 0 0 0 -1 0 0 1 0 0 -1 0 -1 0 0 0 0 1 -1 0 0 0 -1 0 0 0 0 0 -1 1 -1 0 0 0 0 0 -1 0 0 0 0 1 -2 0 0 0 0 0 -1 1 0 0 0 1 -3 0 0 0 0 0 -1 0 0 0 0 1 -1 0 0 0 0 1 -3 0 0 0 0 1 -1 0 0 0 0c0,-2 1,-3 2,-5l0 0 0 0 1 -2 80 -25 0 0 0 0 27 -8c-34,73 -50,136 -50,188 0,88 47,141 133,141 25,0 54,-5 86,-15 201,-61 451,-300 558,-533l21 -7 0 0 254 -76 1 0c-2,2 -3,5 -4,8l0 0 0 0 -1 1 0 0 0 1c-1,2 -2,4 -3,7l0 0 0 0 -1 1 0 0 0 0 -1 1 0 0 0 0 0 1 0 0 0 0 -1 1 0 0 0 1c-5,11 -11,23 -17,34l0 0 0 0 -1 1 0 0 0 0 0 1 0 0 0 0 -1 2 0 0 0 0c-3,5 -5,10 -8,16l0 0 0 0 -1 1 0 0 0 0c-1,2 -2,3 -3,5l0 0 0 0 0 1 -1 0 0 0c0,2 -1,4 -2,5l0 0 0 0 -3 6 0 0 0 0c-3,4 -5,8 -8,13l0 0 0 0 -2 4 0 0 0 0 -2 3 0 0 0 0 0 1 0 0 0 0 -2 3 0 0 0 0c-1,1 -1,2 -2,3l0 0 0 0c-1,2 -3,4 -4,7l0 0 0 0c-2,2 -3,5 -5,8l0 0 0 0c-2,3 -3,5 -5,8l0 0 0 0 -1 3 0 0 0 0 -1 1 -1 0 0 1 0 0 0 0 0 0 -1 2 0 0 0 0c-1,2 -2,3 -3,5l0 0 0 0c-3,5 -7,10 -10,15l0 0 0 0 -1 2 0 0 0 0c-2,3 -4,6 -5,8l0 0 0 0 -1 2 0 0 0 0 -2 2 0 0 0 0 -1 1 0 0 0 1 -1 1 0 0 0 0c-4,7 -8,13 -13,19l0 0 0 0 -1 2 0 0 0 0 -1 2 0 0 0 0c-1,2 -3,3 -4,5l0 0 0 1 -1 1 0 0 0 0 -1 2 0 0 0 0c-2,2 -3,4 -4,6l0 0 0 0c-4,4 -7,9 -10,13l0 0 0 1 -3 3 0 0 0 1c-1,1 -2,2 -3,4l0 0 0 0 -2 2 0 0 0 0 -1 2 0 0 0 0 -1 2 -1 0 0 0c-1,2 -3,4 -4,6l0 0 0 0c-5,6 -9,13 -14,19l0 0 0 0 -2 2 0 0 0 0 -1 2 0 0 0 0 -2 3 0 0 0 0c-4,5 -8,10 -12,15l0 0 0 0 -2 2 0 0 0 1c-1,1 -3,3 -4,5l0 0 0 0c-1,1 -2,2 -2,3l0 0 0 0c-1,1 -2,1 -3,2l0 0 0 1 -2 2 0 0 0 0c-5,6 -9,12 -14,18l0 0 0 0 -3 4 0 0 0 0 -3 3 0 0 0 0 -2 3 0 0 0 0c-1,1 -2,2 -3,3l0 0 0 0 -3 4 0 0 0 0 -3 3 0 0 0 0c-2,3 -4,5 -6,8l0 0 0 0 -4 4 0 0 0 0c-1,1 -2,3 -3,4l0 0 0 0 -1 1 0 0 0 0 -3 3 0 0 0 0 0 1 0 0 0 0c-2,1 -3,2 -4,4l0 0 0 0 -4 4 0 0 0 0c-3,4 -6,7 -9,10l0 0 0 0c-1,2 -3,3 -4,5l0 0 0 0 -1 1 0 0 0 0c-1,2 -3,3 -4,5l0 0 0 0 -1 1 0 0 0 0c-2,2 -3,3 -5,5l0 0 0 0c-2,2 -4,5 -6,7l0 0 0 0c-2,2 -5,5 -7,8l0 0 0 0 -1 0 0 0 0 0c-2,3 -5,5 -7,8l0 0 0 0 0 0 0 0 0 0 -1 1 0 0 0 0 0 1 -1 0 0 0c-3,3 -6,6 -9,9l0 0 0 0c-5,6 -11,12 -17,18l0 0 0 0 0 0 0 0 0 0 -1 1 0 0 0 0 0 0 0 0 0 0 -1 1 0 0 0 0 0 1 0 0 0 0 -1 0 0 0 0 0 -1 1 0 0 0 0 0 0 0 0 0 0 -1 1 0 0 0 0 0 0 0 0 0 0 -1 1 0 0 0 0c-5,5 -10,10 -15,16l0 0 0 0 -1 0 0 0 0 0 -1 1 0 0 0 0 0 0 0 0 0 0 -1 1 0 0 0 0 0 0 0 0 0 0 -1 1 0 0 0 0 0 1 0 0 0 0 -1 0 0 0 0 0 -1 1 0 0 0 0 0 0c-6,6 -12,12 -18,17l0 0 0 0c-3,3 -6,6 -9,9l0 0 0 0 0 0 0 0 0 0 -1 1 0 0 0 0c-3,2 -5,5 -8,7l0 0 0 0 -1 1 0 0 0 0c-4,4 -9,9 -14,13l0 0 0 0c-2,2 -3,3 -5,5l0 0 0 0 -1 0 0 0 0 0c-1,2 -3,3 -5,5l0 0 0 0 0 1 -1 0 0 0c-1,1 -3,3 -5,4l0 0 0 0c-3,3 -6,6 -9,9l0 0 0 0c-2,1 -3,2 -4,3l-1 0 0 0 -3 4 -1 0 0 0 0 0 0 0 0 0c-1,1 -2,2 -3,3l-1 0 0 0 0 1 0 0 0 0c-2,1 -3,2 -4,3l0 0 0 0c-6,5 -12,10 -18,15l0 0 0 0c-1,1 -2,2 -4,3l0 0 0 0c0,1 -1,2 -2,2l0 0 0 1 -1 0 0 0 0 0c-1,1 -2,2 -3,2l0 0 0 0 -3 3 0 0 0 0 -3 2 0 0 0 1c-4,3 -8,6 -12,9l0 0 0 0 -3 2 0 0 0 0 -2 2 0 0 0 0 -3 2 0 0 0 0 -3 2 0 0 0 0c0,1 -1,2 -2,2l0 0 0 0c-2,2 -3,3 -5,4l0 0 0 0c-6,4 -11,9 -17,13l0 0 0 0 -2 2 0 0 0 0c-1,0 -2,1 -2,1l-1 0 0 0c0,1 -1,1 -2,2l0 0 0 0 -2 2 0 0 0 0 -2 1 0 0 0 0c-5,4 -9,7 -13,10l0 0 0 0c-2,1 -3,2 -4,3l0 0 0 0c-2,1 -3,2 -4,2l0 0 0 1 -2 1 0 0 0 0 -2 1 0 0 0 0 -2 2 0 0 0 0c-1,1 -3,1 -4,2l0 0 0 0 -2 2 0 0 0 0c-6,4 -12,8 -18,12l0 0 0 0 -2 1 0 0 0 0 -2 2 0 0 0 0 -1 1 0 0 0 0 -2 1 0 0 0 0 -2 1 0 0 0 0c-6,4 -13,9 -19,13l0 0 0 0 -2 1 0 0 0 0c-1,0 -2,1 -3,2l0 0 0 0 -2 1 0 0 0 0c-1,1 -3,2 -4,3l0 0 0 0 -5 2 0 0 0 1c-2,0 -3,1 -5,2l0 0 0 0c-2,2 -3,3 -5,4l0 0 0 0 -3 2 0 0 0 0 -3 1 0 0 0 0c-1,1 -2,1 -3,2l0 0 0 0 -1 1 0 0 0 0 -2 1 0 0 0 0 -1 0 0 0 0 0c-1,1 -2,2 -3,2l0 0 0 0c-2,1 -5,3 -7,4l0 0 0 0c-3,2 -5,3 -8,5l0 0 0 0c-2,1 -3,2 -5,3l0 0 0 0 -1 0 0 0 0 0c-2,1 -3,2 -4,2l0 0 0 1 -1 0 -1 0 0 0c-1,1 -3,2 -5,3l0 0 0 0 -1 1 0 0 0 0c-6,3 -12,6 -18,9l0 0 0 0 -1 1 0 0 0 0 -2 0 0 0 0 1 -1 0 0 0 0 0 -1 1 0 0 0 0 -1 0 0 0 0 0 -1 1 0 0 0 0 -1 0 0 0 0 0 -1 1 -1 0 0 0 -1 1 0 0 0 0c-4,2 -7,3 -11,5l0 0 0 0c-3,2 -6,3 -9,4l0 0 0 0 -1 1 0 0 0 0 -1 0 0 0 0 1 -1 0 0 0 0 0c-2,1 -4,2 -5,2l-1 0 0 0 -1 1 0 0 0 0 -1 0 0 0 0 0c-2,1 -4,2 -6,3l0 0 0 0c-3,2 -6,3 -9,4l0 0 0 0 -3 2 0 0 0 0 -1 0 0 0 0 0c-1,1 -2,1 -3,1l0 0 0 0 -1 1 -1 0 0 0c0,0 -1,1 -2,1l0 0 0 0c-3,1 -5,2 -7,3l0 0 0 0c-3,1 -6,2 -9,3l0 0 0 0c-1,1 -3,2 -4,2l-1 0 0 0c0,1 -1,1 -2,1l0 0 0 0 -2 1 0 0 0 0 -1 0 0 0 0 0c-1,1 -1,1 -2,1l0 0 0 0 -1 1 -1 0 0 0c-1,0 -2,0 -3,1l0 0 0 0 -1 0 0 0 0 0c-8,3 -16,6 -24,8l0 0 0 1 -1 0 -1 0 0 0 -1 1 -1 0 0 0 -1 0 0 0 0 0 -2 1 0 0 0 0c-2,0 -3,1 -5,1 -3,1 -5,2 -8,3l0 0 0 0c-2,0 -3,0 -4,1l0 0 0 0c-9,2 -19,5 -27,7l0 0 0 0c-2,0 -4,1 -6,1l0 0 0 0 -2 1 0 0 0 0c-4,0 -8,1 -12,2l0 0 0 0 -3 0 0 0 0 0 -3 1 0 0 0 0c-3,0 -5,1 -7,1l0 0 0 0c-3,1 -5,1 -8,1l0 0 0 0c-3,1 -6,1 -9,1l0 0 0 0c-2,1 -3,1 -5,1l0 0 0 0c-4,1 -9,1 -13,1l0 0 0 0c-4,0 -7,1 -10,1l0 0c-5,0 -9,0 -14,0l0 0c-3,0 -6,0 -9,0z"/>
  <path class="fil2" d="M477 1463c-129,0 -201,-78 -202,-211l0 -9c0,-77 25,-173 75,-281l107 -33c-34,73 -50,136 -50,188 0,88 47,141 133,141 25,0 54,-5 86,-15 201,-61 451,-300 558,-533l275 -83 1 0c-163,356 -544,721 -852,814 -49,15 -92,22 -131,22z"/>
  <path class="fil3" d="M547 1082c-43,0 -67,-27 -67,-72 0,-26 8,-58 25,-95l371 -112c-54,119 -182,241 -285,272 -16,5 -31,7 -44,7z"/>
  <path class="fil2" d="M547 1082c-43,0 -67,-27 -67,-72 0,-26 8,-58 25,-95l371 -112c-54,119 -182,241 -285,272 -16,5 -31,7 -44,7z"/>
  <path class="fil4" d="M1195 1379c0,-30 -16,-52 -45,-52 -9,0 -19,2 -23,3l0 97c5,2 14,3 22,3 30,0 46,-19 46,-51zm714 -79l0 30 -35 0 0 79c0,13 9,17 22,17 5,0 10,-1 13,-2l0 33c-5,3 -17,5 -28,5 -37,0 -54,-17 -54,-51l0 -81 -24 0 0 -30 24 0 0 -36 47 -11 0 47 35 0zm-666 79c0,52 -33,83 -94,83 -29,0 -55,-6 -69,-12l0 -216 47 0 0 66c6,-2 18,-4 28,-4 57,0 88,34 88,83zm466 84c-24,0 -47,-5 -61,-12l15 -30c9,5 31,10 44,10 17,0 28,-7 28,-17 0,-12 -12,-17 -29,-22 -23,-8 -53,-17 -53,-49 0,-28 25,-47 69,-47 24,0 43,5 58,12l-15 27c-8,-4 -25,-9 -37,-9 -17,0 -27,7 -27,17 0,12 12,17 29,22 25,7 55,16 55,49 0,30 -26,49 -76,49zm-164 -135c-25,0 -38,19 -38,51 0,32 13,51 38,51 25,0 37,-19 37,-51 0,-32 -12,-51 -37,-51zm0 135c-55,0 -85,-36 -85,-84 0,-47 30,-83 85,-83 54,0 85,36 85,83 0,48 -31,84 -85,84zm-202 -135c-9,0 -18,1 -22,3l0 96c3,2 14,3 22,3 30,0 45,-21 45,-51 0,-33 -16,-51 -45,-51zm5 133c-10,0 -21,-2 -27,-3l0 65 -48 0 0 -215c14,-6 41,-12 69,-12 61,0 94,31 94,83 0,49 -31,82 -88,82z"/>
 </g>
</svg>
